# xmcd
#
# Track frame offsets:
#	150
#	21112
#	33700
#	44510
#	59250
#	73462
#	84660
#	101100
#	115810
#	132537
#
# Disc length: 1947 seconds
#
# Revision: 2
# Processed by: cddbd v1.5.2PL0 Copyright (c) Steve Scherf et al.
# Submitted via: EasyCDDAExtractor 6.0.0.1
#
DISCID=9707990a
DTITLE=Various Artist - Biggest Country Hits of the 90's Vol. 1
DYEAR=1900
DGENRE=Country
TTITLE0=Oak Ridge Boys - The American Dream
TTITLE1=Stebe Wariner - Precious Things
TTITLE2=Mark Chestnutt - All My Old Flames Have New Names
TTITLE3=Marty Stuart - Tempted
TTITLE4=McBride and the Ride - Every Step of the Way
TTITLE5=Patty Loveless - Chains
TTITLE6=Cinway Twitty - One Bridge I Didn't Burn
TTITLE7=Reba McEntyre - Walk On
TTITLE8=Mark Collie - Even The Man In The Moon Is Crying
TTITLE9=Skip Ewing - It's You Again
EXTD=
EXTT0=Oakridge Boys\n
EXTT1=Steve Wariner\n
EXTT2=Mark Chestnut\n
EXTT3=Marty Stuart\n
EXTT4=McBride and The Ride\n
EXTT5=
EXTT6=Conway Twitty\n
EXTT7=Reba McEntire\n
EXTT8=Mark Collie\n
EXTT9=Skip Ewing\n
PLAYORDER=
